%TF.GenerationSoftware,KiCad,Pcbnew,9.0.4*%
%TF.CreationDate,2025-10-31T15:20:24-04:00*%
%TF.ProjectId,Capstone Project Breakout Board 2,43617073-746f-46e6-9520-50726f6a6563,rev?*%
%TF.SameCoordinates,Original*%
%TF.FileFunction,Plated,1,2,PTH,Drill*%
%TF.FilePolarity,Positive*%
%FSLAX46Y46*%
G04 Gerber Fmt 4.6, Leading zero omitted, Abs format (unit mm)*
G04 Created by KiCad (PCBNEW 9.0.4) date 2025-10-31 15:20:24*
%MOMM*%
%LPD*%
G01*
G04 APERTURE LIST*
%TA.AperFunction,ViaDrill*%
%ADD10C,0.300000*%
%TD*%
%TA.AperFunction,ComponentDrill*%
%ADD11C,0.800000*%
%TD*%
%TA.AperFunction,ComponentDrill*%
%ADD12C,1.000000*%
%TD*%
%TA.AperFunction,ComponentDrill*%
%ADD13C,1.020000*%
%TD*%
G04 APERTURE END LIST*
D10*
X111100000Y-69250000D03*
X111750000Y-74000000D03*
X113250000Y-74000000D03*
X114500000Y-65750000D03*
X115100000Y-64500000D03*
X115600000Y-71500000D03*
X116000000Y-82250000D03*
X116750000Y-83500000D03*
X118500000Y-74500000D03*
X124750000Y-66000000D03*
X124750000Y-73500000D03*
X124750000Y-75500000D03*
X133250000Y-104000000D03*
X139000000Y-100000000D03*
X140000000Y-104500000D03*
X153712500Y-65500000D03*
X154175000Y-83000000D03*
X159075000Y-81500000D03*
X159212500Y-70500000D03*
X159712500Y-64600000D03*
X159712500Y-65500000D03*
X161575000Y-88000000D03*
X164212500Y-72500000D03*
X164712500Y-64000000D03*
X164712500Y-65000000D03*
X165075000Y-90526000D03*
X165212500Y-61300000D03*
X165312500Y-66000000D03*
X165712500Y-79500000D03*
X167250000Y-91250000D03*
D11*
%TO.C,J5*%
X129500000Y-65500000D03*
X129500000Y-67500000D03*
X129500000Y-69500000D03*
X129500000Y-71500000D03*
X129500000Y-73500000D03*
X129500000Y-75500000D03*
X129500000Y-77500000D03*
X129500000Y-79500000D03*
X129500000Y-81500000D03*
X129500000Y-83500000D03*
X129500000Y-85500000D03*
X129500000Y-87500000D03*
X129500000Y-89500000D03*
X129500000Y-91500000D03*
X129500000Y-93500000D03*
X129500000Y-95500000D03*
%TO.C,J6*%
X150500000Y-65500000D03*
X150500000Y-67500000D03*
X150500000Y-69500000D03*
X150500000Y-71500000D03*
X150500000Y-73500000D03*
X150500000Y-75500000D03*
X150500000Y-77500000D03*
X150500000Y-79500000D03*
X150500000Y-81500000D03*
X150500000Y-83500000D03*
X150500000Y-85500000D03*
X150500000Y-87500000D03*
X150500000Y-89500000D03*
X150500000Y-91500000D03*
X150500000Y-93500000D03*
X150500000Y-95500000D03*
D12*
%TO.C,J7*%
X163250000Y-98800000D03*
X165750000Y-98800000D03*
D13*
%TO.C,J2*%
X112250000Y-82710000D03*
X112250000Y-85250000D03*
X112250000Y-87790000D03*
X112250000Y-90330000D03*
M02*
